<svg width="526" height="59" viewBox="0 0 526 59" fill="none" xmlns="http://www.w3.org/2000/svg">
<mask id="mask0_6_86" style="mask-type:luminance" maskUnits="userSpaceOnUse" x="0" y="0" width="526" height="59">
<path d="M525.5 0H0.5V58.3522H525.5V0Z" fill="white"/>
</mask>
<g mask="url(#mask0_6_86)">
<path d="M338.882 46.195H370.224V57.3794H326.474V0.972187H338.882V46.195ZM270.717 57.3794H314.467V46.3409H282.955V34.6949H310.821V23.6566H282.955V12.0105H314.467V0.972187H270.717V57.3794ZM381.953 57.3794H394.359V0.972187H381.953V57.3794ZM144.158 0.972187H131.75V57.3794H175.5V46.195H144.158V0.972187ZM187.228 57.3794H199.635V0.972187H187.228V57.3794ZM513.093 0.972187V36.2265L486.756 1.58002L486.296 0.972187H474.349V57.3794H486.756V21.5535L513.093 56.1514L514.027 57.367H525.5V0.972187H513.093ZM462.307 17.6877C460.845 14.2397 458.708 11.1191 456.021 8.50933C453.272 5.8534 450.046 3.74518 446.506 2.29726C438.736 -0.765754 430.092 -0.765754 422.323 2.29726C418.797 3.7241 415.585 5.83301 412.873 8.50313C410.164 11.1733 408.006 14.3522 406.526 17.8578C404.987 21.4326 404.203 25.2848 404.214 29.1758V29.3338C404.174 33.2192 404.918 37.073 406.402 40.6638C407.86 44.1143 409.996 47.2358 412.687 49.842C415.436 52.4938 418.666 54.5978 422.203 56.042C426.031 57.6088 430.132 58.394 434.27 58.3517C438.434 58.3991 442.565 57.6179 446.422 56.0541C449.947 54.631 453.159 52.5248 455.872 49.8566C458.584 47.1884 460.739 44.0108 462.219 40.5059C463.751 36.9256 464.523 33.0686 464.494 29.1758V29.0177C464.534 25.1323 463.791 21.2787 462.307 17.6877ZM451.719 29.3338C451.752 31.6952 451.34 34.0415 450.505 36.2509C449.685 38.3454 448.489 40.27 446.969 41.9283C445.438 43.5793 443.574 44.8882 441.5 45.7697C439.294 46.7085 436.921 47.1804 434.526 47.1556C432.108 47.191 429.709 46.7015 427.5 45.7209C425.422 44.7989 423.548 43.4757 421.98 41.828C420.416 40.1799 419.187 38.2393 418.374 36.1171C417.536 33.9003 417.124 31.5454 417.157 29.1758V29.0177C417.124 26.6559 417.536 24.3088 418.374 22.1005C419.191 20.0062 420.391 18.0814 421.911 16.4234C423.431 14.7813 425.276 13.4732 427.329 12.5819C429.549 11.6362 431.941 11.1641 434.354 11.196C436.76 11.1707 439.141 11.6598 441.343 12.6305C443.429 13.544 445.31 14.8621 446.885 16.5084C448.456 18.1548 449.689 20.0968 450.505 22.2221C451.336 24.4451 451.748 26.8027 451.719 29.1758V29.3338ZM261.785 0.972187H246.861L223.978 25.1762V0.972187H211.569V57.3794H223.978V40.1168L230.504 33.3577L247.991 57.3794H262.891L238.877 24.9087L261.785 0.972187ZM77.0625 21.4805L109.875 0.972187H77.0625V21.4805Z" fill="#212224"/>
<path d="M77.0625 42.7915V57.3794H33.3125V21.4807L0.5 0.97229H39.1458V42.7915H77.0625Z" fill="#FF7710"/>
</g>
</svg>
